<svg width="174" height="177" viewBox="0 0 174 177" fill="none" xmlns="http://www.w3.org/2000/svg">
<g clip-path="url(#clip0_54_69)" filter="url(#filter0_d_54_69)">
<g filter="url(#filter1_i_54_69)">
<path d="M135.261 124.34L134.646 0L91.097 0.22435L91.4164 64.7718C91.5378 89.3137 72.1381 109.308 48.0872 109.432L48.1632 124.788C48.2846 149.329 67.8802 169.123 91.9321 168.999C115.984 168.876 135.382 148.88 135.261 124.34Z" fill="url(#paint0_linear_54_69)"/>
<path d="M4.00034 0.673538L4.31974 65.2208C4.44117 89.7626 24.036 109.556 48.0878 109.432L47.5485 0.449173L4.00034 0.673538Z" fill="url(#paint1_linear_54_69)"/>
<path d="M91.4164 64.7716L91.097 0.223991L47.5482 0.448357L48.0875 109.432C72.1383 109.308 91.5379 89.3135 91.4164 64.7716Z" fill="url(#paint2_linear_54_69)"/>
<path d="M159.252 95.5187C145.738 109.092 124.113 109.036 110.952 95.3935C97.7922 81.7515 98.0787 59.6872 111.593 46.1146C125.107 32.541 146.732 32.5979 159.892 46.2398C173.053 59.8828 172.766 81.9451 159.252 95.5187Z" fill="url(#paint3_linear_54_69)"/>
<path d="M159.892 46.2398C153.106 39.2052 144.069 35.8126 135.055 36.0096L135.789 105.624C144.257 105.44 152.707 102.093 159.252 95.5187C172.766 81.945 173.053 59.8828 159.892 46.2398Z" fill="url(#paint4_linear_54_69)"/>
</g>
</g>
<defs>
<filter id="filter0_d_54_69" x="0" y="0" width="173.578" height="177" filterUnits="userSpaceOnUse" color-interpolation-filters="sRGB">
<feFlood flood-opacity="0" result="BackgroundImageFix"/>
<feColorMatrix in="SourceAlpha" type="matrix" values="0 0 0 0 0 0 0 0 0 0 0 0 0 0 0 0 0 0 127 0" result="hardAlpha"/>
<feOffset dy="4"/>
<feGaussianBlur stdDeviation="2"/>
<feComposite in2="hardAlpha" operator="out"/>
<feColorMatrix type="matrix" values="0 0 0 0 0 0 0 0 0 0 0 0 0 0 0 0 0 0 0.25 0"/>
<feBlend mode="normal" in2="BackgroundImageFix" result="effect1_dropShadow_54_69"/>
<feBlend mode="normal" in="SourceGraphic" in2="effect1_dropShadow_54_69" result="shape"/>
</filter>
<filter id="filter1_i_54_69" x="4.00037" y="0" width="165.578" height="173" filterUnits="userSpaceOnUse" color-interpolation-filters="sRGB">
<feFlood flood-opacity="0" result="BackgroundImageFix"/>
<feBlend mode="normal" in="SourceGraphic" in2="BackgroundImageFix" result="shape"/>
<feColorMatrix in="SourceAlpha" type="matrix" values="0 0 0 0 0 0 0 0 0 0 0 0 0 0 0 0 0 0 127 0" result="hardAlpha"/>
<feOffset dy="4"/>
<feGaussianBlur stdDeviation="2"/>
<feComposite in2="hardAlpha" operator="arithmetic" k2="-1" k3="1"/>
<feColorMatrix type="matrix" values="0 0 0 0 0 0 0 0 0 0 0 0 0 0 0 0 0 0 0.25 0"/>
<feBlend mode="normal" in2="shape" result="effect1_innerShadow_54_69"/>
</filter>
<linearGradient id="paint0_linear_54_69" x1="91.6743" y1="169" x2="91.6743" y2="0" gradientUnits="userSpaceOnUse">
<stop offset="0.525" stop-color="#D8D0C0"/>
<stop offset="1" stop-color="#726E65"/>
</linearGradient>
<linearGradient id="paint1_linear_54_69" x1="26.0441" y1="109.433" x2="26.0441" y2="0.449173" gradientUnits="userSpaceOnUse">
<stop offset="0.695" stop-color="#7389AE"/>
<stop offset="1" stop-color="#303948"/>
</linearGradient>
<linearGradient id="paint2_linear_54_69" x1="69.4826" y1="109.432" x2="69.4826" y2="0.223984" gradientUnits="userSpaceOnUse">
<stop stop-color="#1B72A4"/>
<stop offset="1" stop-color="#0A2B3E"/>
</linearGradient>
<linearGradient id="paint3_linear_54_69" x1="135.422" y1="105.662" x2="135.422" y2="35.9713" gradientUnits="userSpaceOnUse">
<stop offset="0.64" stop-color="#0E2430"/>
<stop offset="1" stop-color="#2C7096"/>
</linearGradient>
<linearGradient id="paint4_linear_54_69" x1="152.316" y1="105.624" x2="152.316" y2="36.0015" gradientUnits="userSpaceOnUse">
<stop offset="0.37" stop-color="#DD6031"/>
<stop offset="1" stop-color="#77341A"/>
</linearGradient>
<clipPath id="clip0_54_69">
<rect width="165.578" height="169" fill="white" transform="matrix(-1 0 0 -1 169.578 169)"/>
</clipPath>
</defs>
</svg>
